<svg xmlns="http://www.w3.org/2000/svg" viewBox="0 0 400 250" width="400" height="250"><rect width="400" height="250" fill="#3e6b2a"/><rect x="95.0" y="20.0" width="68" height="68" fill="#7cb342" stroke="#5d8a2e" stroke-width="1"/><rect x="165.0" y="20.0" width="68" height="68" fill="#7cb342" stroke="#5d8a2e" stroke-width="1"/><rect x="235.0" y="20.0" width="68" height="68" fill="#7cb342" stroke="#5d8a2e" stroke-width="1"/><rect x="95.0" y="90.0" width="68" height="68" fill="#7cb342" stroke="#5d8a2e" stroke-width="1"/><rect x="165.0" y="90.0" width="68" height="68" fill="#7cb342" stroke="#5d8a2e" stroke-width="1"/><rect x="235.0" y="90.0" width="68" height="68" fill="#7cb342" stroke="#5d8a2e" stroke-width="1"/><rect x="95.0" y="160.0" width="68" height="68" fill="#7cb342" stroke="#5d8a2e" stroke-width="1"/><rect x="165.0" y="160.0" width="68" height="68" fill="#7cb342" stroke="#5d8a2e" stroke-width="1"/><rect x="235.0" y="160.0" width="68" height="68" fill="#7cb342" stroke="#5d8a2e" stroke-width="1"/><rect x="95.0" y="119.0" width="208" height="12" fill="#e6d3a3"/><rect x="194.0" y="125.0" width="12" height="103.0" fill="#e6d3a3"/><path d="M95.0 20.0 h138 v38.5 q-70 24.5 -138 0 z" fill="#b5835a" stroke="#8d5b36" stroke-width="3"/><rect x="153.0" y="28.0" width="22" height="18" fill="#8d5b36"/><polygon points="150.0,28.0 164.0,16.0 178.0,28.0" fill="#c0392b"/><rect x="255.0" y="46.0" width="28" height="20" fill="#f5f0e6" stroke="#8d5b36" stroke-width="2"/><polygon points="252.0,46.0 269.0,32.0 286.0,46.0" fill="#c0392b"/><g transform="translate(130.0 127.0)" fill="#3a7bd5" stroke="#00000033" stroke-width="1"><circle cx="0" cy="-12" r="6"/><path d="M-12 -4 q12 -6 24 0 l-4 6 l4 14 h-8 l-4 -8 l-4 8 h-8 l4 -14 z"/></g><g transform="translate(270.0 195.0)" fill="#f0c419" stroke="#00000033" stroke-width="1"><circle cx="0" cy="-12" r="6"/><path d="M-12 -4 q12 -6 24 0 l-4 6 l4 14 h-8 l-4 -8 l-4 8 h-8 l4 -14 z"/></g></svg>
